<svg width="69" height="56" viewBox="0 0 69 56" fill="none" xmlns="http://www.w3.org/2000/svg">
<mask id="mask0_1_3428" style="mask-type:luminance" maskUnits="userSpaceOnUse" x="0" y="0" width="69" height="56">
<path d="M68.5228 0.880981H0.514404V55.7375H68.5228V0.880981Z" fill="white"/>
</mask>
<g mask="url(#mask0_1_3428)">
<path d="M22.6767 41.3967C22.3179 41.3967 21.9592 41.3838 21.6005 41.3644L9.59081 23.07C9.59081 23.0636 9.58435 23.0636 9.58435 23.0571L4.802 15.7781L1.58005 10.8738C0.942808 9.90053 0.580345 8.77324 0.530967 7.61096C0.481589 6.4487 0.747123 5.29468 1.29952 4.27089C1.85191 3.24709 2.67063 2.39156 3.66915 1.7947C4.66768 1.19783 5.80891 0.881825 6.97221 0.880066H20.6033C19.3258 3.48616 18.6606 6.34965 18.6584 9.25198C18.6561 12.1544 19.3169 15.0189 20.5904 17.6269C20.6356 17.7166 20.6808 17.8127 20.7339 17.9024C20.7661 17.9605 20.7984 18.0115 20.8365 18.0696L23.006 21.3755L23.0189 21.3884L29.6307 31.4467C29.6371 31.4531 29.6436 31.4661 29.65 31.4725L31.8066 34.7583C32.1899 35.3516 32.7571 35.8028 33.4214 36.0427C34.0856 36.2828 34.8102 36.2983 35.4841 36.087L35.4846 36.0846L35.4861 36.0827L35.4882 36.0815L35.4906 36.0813C35.7409 36.0046 35.9805 35.8966 36.2037 35.7599C34.431 37.5428 32.3237 38.9584 30.0029 39.9256C27.682 40.8927 25.1931 41.3924 22.6788 41.3959L22.6767 41.3967Z" fill="url(#paint0_linear_1_3428)"/>
<path d="M20.5912 17.628C19.3151 15.0249 18.654 12.1634 18.6592 9.26428C18.658 8.27546 18.7353 7.28802 18.8902 6.31137C18.8914 6.29166 18.8957 6.27227 18.9031 6.25397C19.1945 4.38717 19.7681 2.57553 20.6042 0.881171H20.9062C21.1377 0.880839 21.3691 0.893774 21.5992 0.919912H21.625C23.4151 1.09756 25.0752 1.93431 26.2828 3.2676C27.4904 4.60088 28.1592 6.33548 28.1594 8.13434V13.0322H23.5571C22.7607 13.0314 21.9917 13.3233 21.3965 13.8524C20.8012 14.3815 20.4212 15.1109 20.3287 15.9019C20.2548 16.4905 20.3457 17.088 20.5912 17.628Z" fill="url(#paint1_linear_1_3428)"/>
<path d="M29.129 52.8351L21.5996 41.3649C21.9583 41.3842 22.317 41.3972 22.6757 41.3972C25.19 41.3936 27.6789 40.8939 29.9998 39.9268C32.3207 38.9596 34.4278 37.544 36.2007 35.7611C36.6201 35.5112 36.976 35.1674 37.2401 34.7567L37.7345 34.0062C38.3567 33.2078 38.9127 32.3598 39.3968 31.4708C39.4068 31.4566 39.4154 31.4415 39.4226 31.4257L48.191 18.0679C48.5148 17.5775 48.6995 17.0084 48.7255 16.4213C48.7514 15.8341 48.6176 15.2509 48.3382 14.7339C48.0589 14.2168 47.6445 13.7852 47.1392 13.4851C46.634 13.1849 46.0567 13.0274 45.4691 13.0294H40.8668V8.13443C40.867 6.21083 41.6312 4.36606 42.9914 3.00587C44.3516 1.64568 46.1963 0.881447 48.12 0.881257H62.0552C62.7218 0.877657 63.3847 0.979349 64.0196 1.18258C64.8358 1.43411 65.5902 1.85399 66.2342 2.41512C66.3059 2.47323 66.3691 2.53062 66.4394 2.58873C66.4582 2.60165 66.4755 2.61656 66.4911 2.63321C67.5969 3.67355 68.2994 5.07131 68.4743 6.57946C68.6494 8.08758 68.2856 9.60909 67.4474 10.875L42.0734 49.5442L39.9105 52.8365C39.3222 53.7285 38.5217 54.4607 37.5808 54.9672C36.6398 55.4738 35.5879 55.7388 34.5193 55.7386C33.4507 55.7385 32.3989 55.4732 31.4581 54.9664C30.5174 54.4596 29.717 53.7273 29.129 52.8351Z" fill="url(#paint2_linear_1_3428)"/>
<path d="M37.7356 34.0088L39.3979 31.4734C38.9137 32.3624 38.3578 33.2103 37.7356 34.0088Z" fill="url(#paint3_linear_1_3428)"/>
<g style="mix-blend-mode:screen" opacity="0.25">
<path d="M34.525 54.4588C33.666 54.4663 32.8191 54.2567 32.0627 53.8492C31.3064 53.4419 30.6653 52.85 30.1989 52.1286L24.7429 43.8165C29.7498 46.7048 38.1265 46.8333 50.906 33.7517L38.8389 52.135C38.3743 52.8549 37.7351 53.4454 36.9808 53.8518C36.2265 54.258 35.3818 54.4669 34.525 54.4588Z" fill="white"/>
</g>
<g style="mix-blend-mode:multiply" opacity="0.3">
<path d="M46.011 13.3309L46.0828 13.3374H46.0253C46.0174 13.3309 46.0174 13.3309 46.011 13.3309Z" fill="#4B4B4C"/>
</g>
<g style="mix-blend-mode:multiply" opacity="0.3">
<path d="M47.8463 17.8391L47.8142 17.9041L47.8274 17.8654C47.8339 17.8588 47.8412 17.8457 47.8463 17.8391Z" fill="#4B4B4C"/>
</g>
<g style="mix-blend-mode:multiply" opacity="0.3">
<path d="M22.6785 41.3966C23.4296 41.2682 24.1808 41.1649 24.919 41.0049C25.6572 40.8449 26.3947 40.6899 27.1136 40.4654C27.8454 40.2731 28.552 39.9969 29.258 39.753C29.9575 39.4767 30.6504 39.2013 31.3184 38.8612C31.9907 38.5354 32.6423 38.1688 33.2698 37.7635C33.8975 37.3676 34.4979 36.93 35.067 36.4535C35.2105 36.3316 35.3432 36.2096 35.4838 36.0876L35.4842 36.0853L35.4857 36.0833L35.4878 36.0821L35.4902 36.0819C35.7405 36.0052 35.9801 35.8972 36.2034 35.7605C36.6229 35.5106 36.9788 35.1667 37.2429 34.7561L37.7372 34.0057L39.3995 31.4703C39.4095 31.456 39.4181 31.4409 39.4253 31.4251L48.1937 18.0673C48.5176 17.5769 48.7022 17.0078 48.7282 16.4207C48.7541 15.8336 48.6203 15.2504 48.3409 14.7333C48.0616 14.2163 47.6472 13.7847 47.142 13.4845C46.6367 13.1843 46.0594 13.0268 45.4718 13.0288H40.8695V8.13385C40.9527 9.71219 40.9915 11.279 41.0431 12.8516C42.7248 12.7878 44.3999 12.762 46.0815 12.7297H46.1139L46.1519 12.7361C46.4324 12.8093 46.7054 12.9082 46.9676 13.0317C47.2277 13.152 47.4751 13.2981 47.7059 13.4679C47.9421 13.6453 48.1585 13.8476 48.3515 14.0713C48.4419 14.1868 48.5252 14.3152 48.6084 14.4372C48.6895 14.5652 48.7582 14.7007 48.8136 14.8418C48.8794 14.979 48.9291 15.1234 48.9614 15.2722C49.006 15.4164 49.0342 15.5651 49.0453 15.7156C49.0629 15.8625 49.0713 16.0103 49.0704 16.1583L49.0453 16.6009C49.007 16.887 48.9491 17.1701 48.8717 17.4482L48.5761 18.2445L48.5696 18.2632L48.5445 18.3019C46.9138 20.8567 45.2515 23.3956 43.5943 25.9339L41.0833 29.7363L38.5608 33.5171C38.1246 34.1585 37.7394 34.7554 37.2644 35.4298C36.7466 36.0239 36.1697 36.5638 35.5426 37.0411C34.9291 37.5139 34.2859 37.9469 33.6171 38.3375C32.9516 38.7269 32.2636 39.0761 31.5566 39.3835C30.8571 39.7049 30.1375 39.961 29.4122 40.2178C29.1812 40.2824 28.9437 40.3527 28.7127 40.4108C28.2055 40.5586 27.7083 40.6928 27.1918 40.7896C26.4536 40.969 25.696 41.0766 24.9448 41.1936C24.1937 41.3105 23.4361 41.3256 22.6785 41.3966Z" fill="#4B4B4C"/>
</g>
<g style="mix-blend-mode:screen" opacity="0.35">
<path d="M42.074 49.5419C43.0238 47.9112 44.0189 46.3135 44.9946 44.695C45.9832 43.0521 47.0163 41.4407 48.0308 39.8107L51.0927 34.9452L54.2056 30.1054C56.2852 26.889 58.3863 23.6844 60.5089 20.4919L63.7122 15.7167C64.7646 14.1312 65.8688 12.5651 66.9406 10.986C67.1458 10.5491 67.364 10.1129 67.5634 9.67599L67.7943 8.98295C67.8811 8.75703 67.9433 8.52258 67.9802 8.28346L68.1022 7.56602C68.1216 7.32855 68.1086 7.09109 68.1215 6.8486C68.1343 6.60797 68.115 6.3667 68.0642 6.13117C68.0453 5.89065 67.9971 5.65334 67.9207 5.42451C67.857 5.19058 67.7777 4.96119 67.6832 4.73793C67.5742 4.5227 67.4772 4.29528 67.3495 4.09225C67.2218 3.88922 67.0862 3.68188 66.9384 3.48315C66.7713 3.29662 66.6178 3.10435 66.4507 2.92428C65.745 2.21138 64.9221 1.62508 64.0179 1.19098C64.4942 1.36366 64.9522 1.58306 65.3853 1.84599C65.608 1.97073 65.8222 2.10997 66.0267 2.26281C66.1702 2.36612 66.3028 2.47804 66.4377 2.59713C66.4565 2.61005 66.4738 2.62496 66.4894 2.64161C67.5952 3.68196 68.2977 5.0797 68.4727 6.58786C68.6477 8.096 68.2839 9.61752 67.4457 10.8834L42.074 49.5419Z" fill="white"/>
</g>
<g style="mix-blend-mode:screen" opacity="0.35">
<path d="M28.1579 12.0558C28.1579 12.0558 27.9779 11.1375 27.8495 9.76009C27.8115 9.41931 27.7777 9.04266 27.7534 8.64951C27.729 8.25636 27.7024 7.82805 27.6508 7.43633C27.6249 7.23689 27.6055 7.0317 27.5789 6.82006C27.5208 6.62134 27.4756 6.42189 27.4312 6.21671L27.3595 5.90821L27.244 5.62124C27.1772 5.42176 27.0979 5.22671 27.0065 5.03726L26.7117 4.48484C26.6091 4.30549 26.4741 4.14478 26.3586 3.97762C26.2343 3.81447 26.1015 3.65809 25.9605 3.50914C25.8299 3.35333 25.6859 3.2093 25.5301 3.07869C25.238 2.81963 24.9314 2.57747 24.6117 2.35337C24.2911 2.15393 23.989 1.96166 23.6942 1.80741C23.3993 1.65316 23.1159 1.51255 22.8655 1.40924C22.6094 1.29373 22.3841 1.20405 22.1983 1.13375C21.8195 0.99026 21.595 0.918518 21.595 0.918518H21.6207C23.4108 1.09616 25.071 1.93292 26.2785 3.2662C27.4861 4.59949 28.155 6.33408 28.1551 8.13297L28.1579 12.0558Z" fill="white"/>
</g>
<g style="mix-blend-mode:multiply" opacity="0.3">
<path d="M29.63 31.4474C29.2189 30.9337 28.8207 30.4071 28.4297 29.8812C28.0316 29.3417 27.6205 28.8087 27.2295 28.2699C26.4403 27.1852 25.6755 26.094 24.9057 24.9963C24.1481 23.8922 23.3841 22.801 22.6523 21.6839C21.9012 20.5734 21.1694 19.4599 20.4448 18.3336L20.4319 18.3077L20.4254 18.2948C20.2102 17.8263 19.944 17.3708 19.7639 16.8829C19.5611 16.4031 19.3853 15.9123 19.2374 15.4129C19.0775 14.9178 18.9427 14.415 18.8334 13.9063C18.7438 13.3998 18.6405 12.8926 18.5831 12.3789C18.5113 11.8652 18.4869 11.3458 18.4611 10.8322C18.4374 10.3189 18.4396 9.8048 18.4676 9.29184C18.5079 8.28716 18.6496 7.28917 18.8908 6.31307C18.892 6.29336 18.8964 6.27397 18.9038 6.25568C18.8528 6.76218 18.8464 7.26939 18.832 7.77661C18.8177 8.28386 18.8449 8.78462 18.8765 9.29184C18.9081 9.79906 18.9604 10.2927 19.02 10.787C19.0917 11.2892 19.1678 11.782 19.2639 12.2699C19.3478 12.7642 19.4791 13.2391 19.5975 13.727C19.7517 14.1954 19.8673 14.6833 20.0473 15.1453C20.1305 15.4022 20.2267 15.6525 20.3293 15.9029C20.2555 16.4918 20.3466 17.0896 20.5926 17.6298C20.6378 17.7194 20.683 17.8156 20.7361 17.9053C20.7683 17.9634 20.8006 18.0143 20.8386 18.0724L23.0081 21.3783L23.0211 21.3912L29.63 31.4474Z" fill="#4B4B4C"/>
</g>
<g style="mix-blend-mode:screen" opacity="0.35">
<path d="M9.58193 23.0582L4.79956 15.7792L1.5776 10.8749C0.940366 9.90165 0.577904 8.77436 0.528526 7.61206C0.479147 6.4498 0.744681 5.29579 1.29708 4.27199C1.84947 3.2482 2.66819 2.39266 3.66672 1.7958C4.66524 1.19893 5.80646 0.882923 6.96977 0.881165H14.9031C15.0961 0.887621 15.2883 0.906992 15.477 0.919905C13.9432 1.04187 12.4158 1.09281 10.8812 1.18248C9.36024 1.24705 7.8515 1.30445 6.33055 1.34319C6.12444 1.38534 5.92085 1.43899 5.72073 1.50389C5.5055 1.57563 5.29674 1.65168 5.09156 1.7349C4.67998 1.89819 4.28279 2.0957 3.9042 2.32534C3.71767 2.44085 3.5455 2.57572 3.36471 2.69769C3.19181 2.83256 3.03756 2.98466 2.8704 3.12097C2.71042 3.26876 2.58343 3.44237 2.43421 3.5959C2.29524 3.75967 2.16862 3.93352 2.05539 4.11604C1.93079 4.28814 1.82542 4.47339 1.74118 4.66846C1.6398 4.85637 1.55807 5.05423 1.49725 5.2589L1.31071 5.87517L1.21458 6.51654L1.16939 6.83795L1.17585 7.17155L1.16939 7.82656C1.17584 8.05112 1.22104 8.26922 1.24687 8.49377L1.31862 9.06771C2.75634 11.3472 4.15985 13.643 5.52918 15.955L6.56946 17.7199C6.91597 18.3103 7.26249 18.8943 7.59609 19.4912C8.25971 20.6771 8.93983 21.858 9.58193 23.0582Z" fill="white"/>
</g>
</g>
<defs>
<linearGradient id="paint0_linear_1_3428" x1="-587.315" y1="326.512" x2="-546.784" y2="326.512" gradientUnits="userSpaceOnUse">
<stop stop-color="#C33764"/>
<stop offset="1" stop-color="#1D2671"/>
</linearGradient>
<linearGradient id="paint1_linear_1_3428" x1="-582.778" y1="315.94" x2="-573.327" y2="322.822" gradientUnits="userSpaceOnUse">
<stop stop-color="#E2316A"/>
<stop offset="1" stop-color="#1D2671"/>
</linearGradient>
<linearGradient id="paint2_linear_1_3428" x1="-537.612" y1="316.038" x2="-604.961" y2="286.45" gradientUnits="userSpaceOnUse">
<stop stop-color="#0AC60A"/>
<stop offset="1" stop-color="#0AC60A"/>
</linearGradient>
<linearGradient id="paint3_linear_1_3428" x1="-556.869" y1="306.314" x2="-554.334" y2="306.314" gradientUnits="userSpaceOnUse">
<stop stop-color="#FCC400"/>
<stop offset="0.162" stop-color="#FBC000"/>
<stop offset="0.307" stop-color="#F8B500"/>
<stop offset="0.446" stop-color="#F3A300"/>
<stop offset="0.581" stop-color="#EB8900"/>
<stop offset="0.712" stop-color="#E26800"/>
<stop offset="0.842" stop-color="#D73F00"/>
<stop offset="0.967" stop-color="#CA1000"/>
<stop offset="1" stop-color="#C70300"/>
</linearGradient>
</defs>
</svg>
